# xmcd
#
# Track frame offsets: 
#        150
#        21527
#        37902
#        54188
#        71302
#        90758
#        108360
#        123472
#        141174
#        154410
#        179987
#        200751
#        217118
#        233782
#        251654
#        270573
#
# Disc length: 3754 seconds
#
# Revision: 0
# Processed by: cddbd v1.5.2PL0 Copyright (c) Steve Scherf et al.
# Submitted via: ExactAudioCopyFreeDBPlugin 1.0
#
DISCID=e90ea810
DTITLE=Jaheim - Struggle Love (Deluxe Edition)
DYEAR=2016
DGENRE=R&B
TTITLE0=My Shoes
TTITLE1=Craziest Place
TTITLE2=Nights Like This
TTITLE3=Struggle Love
TTITLE4=Songs To Have Sex To
TTITLE5=If Someone Asks
TTITLE6=Something Tells Me
TTITLE7=If I Were You
TTITLE8=Be That Dude
TTITLE9=Back In My Arms
TTITLE10=Keep
TTITLE11=Always Come Back
TTITLE12=Side Piece
TTITLE13=Aholic
TTITLE14=One By One
TTITLE15=Speak Up
EXTD=
EXTT0=
EXTT1=
EXTT2=
EXTT3=
EXTT4=
EXTT5=
EXTT6=
EXTT7=
EXTT8=
EXTT9=
EXTT10=
EXTT11=
EXTT12=
EXTT13=
EXTT14=
EXTT15=
PLAYORDER=
